<svg width="24" height="21" viewBox="0 0 24 21" fill="none" xmlns="http://www.w3.org/2000/svg">
<path d="M7.54776 20.3232C16.6048 20.3232 21.5578 12.6294 21.5578 5.95764C21.5578 5.73914 21.5534 5.52164 21.5438 5.30504C22.5075 4.59 23.3393 3.70466 24 2.69054C23.1177 3.09274 22.1683 3.36344 21.1723 3.48549C22.1889 2.86044 22.9694 1.87159 23.3376 0.692892C22.371 1.28084 21.3136 1.69531 20.2109 1.91844C19.3123 0.937042 18.0331 0.323242 16.6166 0.323242C13.8974 0.323242 11.6923 2.58434 11.6923 5.37149C11.6923 5.76774 11.7356 6.15304 11.8201 6.52274C7.72766 6.31159 4.09878 4.30249 1.67015 1.24754C1.23273 2.01806 1.00265 2.89377 1.00341 3.78524C1.00341 5.53694 1.87268 7.08329 3.19463 7.98799C2.41268 7.9635 1.6479 7.74693 0.964585 7.35649C0.963854 7.37769 0.963854 7.39834 0.963854 7.42099C0.963854 9.86614 2.66112 11.9077 4.91419 12.3703C4.49104 12.4885 4.05439 12.5482 3.6158 12.5479C3.29907 12.5479 2.99039 12.516 2.69039 12.4569C3.31727 14.463 5.13502 15.9229 7.29019 15.9637C5.60488 17.3181 3.4819 18.1249 1.17454 18.1249C0.782024 18.1252 0.389833 18.1019 0 18.0549C2.17922 19.4872 4.76659 20.3232 7.54776 20.3232Z" fill="#FFF"/>
</svg>
