<svg width="18" height="17" viewBox="0 0 18 17" fill="none" xmlns="http://www.w3.org/2000/svg">
<path d="M9.99539 7.06242L10.002 0.993809C10.002 0.727745 9.89629 0.472571 9.70814 0.284423C9.51999 0.0962739 9.26482 -0.0094372 8.99875 -0.00945618C8.73269 -0.00947517 8.47753 0.0961992 8.28941 0.284321C8.10129 0.472443 7.99561 0.727601 7.99563 0.993664L8.00313 7.06228L1.93451 7.05478C1.66845 7.05476 1.41329 7.16044 1.22517 7.34856C1.03705 7.53668 0.931372 7.79184 0.93139 8.05791C0.931409 8.32397 1.03712 8.57914 1.22527 8.76729C1.41342 8.95544 1.66859 9.06115 1.93466 9.06117L8.00327 9.05454L7.99664 15.1232C7.99611 15.255 8.02169 15.3857 8.07193 15.5077C8.12216 15.6297 8.19604 15.7405 8.28931 15.8337C8.38258 15.927 8.49339 16.0009 8.61535 16.0511C8.73731 16.1014 8.86801 16.1269 8.9999 16.1264C9.13179 16.127 9.26249 16.1014 9.38444 16.0512C9.50639 16.001 9.61719 15.9271 9.71045 15.8338C9.80371 15.7406 9.87757 15.6298 9.92779 15.5078C9.978 15.3859 10.0036 15.2552 10.003 15.1233L9.99553 9.05468L16.0641 9.06217C16.196 9.06272 16.3267 9.03716 16.4487 8.98694C16.5706 8.93673 16.6814 8.86286 16.7747 8.7696C16.8679 8.67635 16.9418 8.56555 16.992 8.44359C17.0422 8.32164 17.0678 8.19095 17.0673 8.05905C17.0678 7.92716 17.0422 7.79646 16.992 7.6745C16.9417 7.55254 16.8679 7.44173 16.7746 7.34846C16.6813 7.25519 16.5705 7.18131 16.4486 7.13108C16.3266 7.08084 16.1959 7.05526 16.064 7.05579L9.99539 7.06242Z" fill="#FFF"/>
</svg>
